<svg width="32" height="32" viewBox="0 0 32 32" fill="none" xmlns="http://www.w3.org/2000/svg">
<path d="M13.2493 20.6663C13.1303 20.2049 12.8898 19.7838 12.5528 19.4469C12.2159 19.1099 11.7948 18.8694 11.3333 18.7503L3.15333 16.641C3.01378 16.6014 2.89095 16.5173 2.80348 16.4016C2.71602 16.2859 2.6687 16.1448 2.6687 15.9997C2.6687 15.8546 2.71602 15.7135 2.80348 15.5978C2.89095 15.482 3.01378 15.398 3.15333 15.3583L11.3333 13.2477C11.7946 13.1288 12.2156 12.8884 12.5525 12.5517C12.8895 12.215 13.1301 11.7942 13.2493 11.333L15.3587 3.15301C15.3979 3.01291 15.4818 2.88947 15.5978 2.80154C15.7137 2.71361 15.8552 2.66602 16.0007 2.66602C16.1462 2.66602 16.2877 2.71361 16.4036 2.80154C16.5195 2.88947 16.6035 3.01291 16.6427 3.15301L18.7507 11.333C18.8697 11.7944 19.1102 12.2155 19.4472 12.5525C19.7841 12.8895 20.2052 13.13 20.6667 13.249L28.8467 15.357C28.9873 15.3958 29.1114 15.4797 29.1998 15.5958C29.2882 15.7119 29.3361 15.8538 29.3361 15.9997C29.3361 16.1456 29.2882 16.2875 29.1998 16.4036C29.1114 16.5197 28.9873 16.6035 28.8467 16.6423L20.6667 18.7503C20.2052 18.8694 19.7841 19.1099 19.4472 19.4469C19.1102 19.7838 18.8697 20.2049 18.7507 20.6663L16.6413 28.8463C16.6021 28.9865 16.5182 29.1099 16.4022 29.1978C16.2863 29.2858 16.1448 29.3333 15.9993 29.3333C15.8538 29.3333 15.7123 29.2858 15.5964 29.1978C15.4805 29.1099 15.3965 28.9865 15.3573 28.8463L13.2493 20.6663Z" stroke="#E17100" stroke-width="2.66667" stroke-linecap="round" stroke-linejoin="round"/>
<path d="M26.6667 4V9.33333" stroke="#E17100" stroke-width="2.66667" stroke-linecap="round" stroke-linejoin="round"/>
<path d="M29.3333 6.66699H24" stroke="#E17100" stroke-width="2.66667" stroke-linecap="round" stroke-linejoin="round"/>
<path d="M5.33334 22.667V25.3337" stroke="#E17100" stroke-width="2.66667" stroke-linecap="round" stroke-linejoin="round"/>
<path d="M6.66667 24H4" stroke="#E17100" stroke-width="2.66667" stroke-linecap="round" stroke-linejoin="round"/>
</svg>
