<svg width="32" height="32" viewBox="0 0 32 32" fill="none" xmlns="http://www.w3.org/2000/svg">
<path d="M21.3333 28V25.3333C21.3333 23.9188 20.7714 22.5623 19.7712 21.5621C18.771 20.5619 17.4145 20 16 20H7.99999C6.5855 20 5.22895 20.5619 4.22875 21.5621C3.22856 22.5623 2.66666 23.9188 2.66666 25.3333V28" stroke="#E17100" stroke-width="2.66667" stroke-linecap="round" stroke-linejoin="round"/>
<path d="M12 14.6667C14.9455 14.6667 17.3333 12.2789 17.3333 9.33333C17.3333 6.38781 14.9455 4 12 4C9.05447 4 6.66666 6.38781 6.66666 9.33333C6.66666 12.2789 9.05447 14.6667 12 14.6667Z" stroke="#E17100" stroke-width="2.66667" stroke-linecap="round" stroke-linejoin="round"/>
<path d="M29.3333 27.9995V25.3329C29.3325 24.1512 28.9392 23.0032 28.2152 22.0693C27.4912 21.1353 26.4775 20.4683 25.3333 20.1729" stroke="#E17100" stroke-width="2.66667" stroke-linecap="round" stroke-linejoin="round"/>
<path d="M21.3333 4.17285C22.4806 4.46659 23.4974 5.13379 24.2235 6.06927C24.9497 7.00474 25.3438 8.15529 25.3438 9.33952C25.3438 10.5237 24.9497 11.6743 24.2235 12.6098C23.4974 13.5452 22.4806 14.2125 21.3333 14.5062" stroke="#E17100" stroke-width="2.66667" stroke-linecap="round" stroke-linejoin="round"/>
</svg>
